<?xml version="1.0" encoding="UTF-8"?>
<svg version="1.1" xmlns="http://www.w3.org/2000/svg" width="601" height="266">
<path d="M0 0 C23.83755798 10.80937482 46.52842402 17.58409595 72.98757935 13.72790527 C73.71751099 13.6271167 74.44744263 13.52632812 75.19949341 13.42248535 C89.11409638 11.17941268 102.15498326 5.16387996 114.9848938 -0.42785645 C145.32771424 -13.60973048 176.16929 -18.15416073 207.83035278 -6.00231934 C212.54149273 -4.07866168 217.14403117 -1.92251648 221.7492981 0.23962402 C222.39517883 0.5426947 223.04105957 0.84576538 223.70651245 1.15802002 C226.95977989 2.68845739 230.20544808 4.23246473 233.44021606 5.80163574 C260.55205308 18.84245963 289.36450456 23.69791833 318.34329224 13.75915527 C327.72980251 10.36267537 336.71521013 6.14415252 345.74807739 1.91369629 C354.51452798 -2.14663623 363.33126268 -5.41899285 372.61257935 -8.08459473 C373.49043091 -8.33725098 374.36828247 -8.58990723 375.2727356 -8.85021973 C403.8186036 -15.70514515 430.26064601 -6.99529476 455.69070435 5.37634277 C469.81083455 12.24150009 483.85726459 18.94173733 499.61257935 20.91540527 C499.94257935 21.90540527 500.27257935 22.89540527 500.61257935 23.91540527 C482.78482934 22.34707538 467.26160289 14.39505732 451.40237427 6.62756348 C442.9413577 2.50069258 434.60325219 -1.26158482 425.61257935 -4.08459473 C424.59293091 -4.41975098 423.57328247 -4.75490723 422.5227356 -5.10021973 C394.10334567 -12.82860759 368.34542691 -4.38407413 342.61257935 6.91540527 C318.44344968 17.49117158 318.44344968 17.49117158 308.61257935 19.91540527 C307.72828247 20.13841309 306.8439856 20.3614209 305.93289185 20.59118652 C276.166491 26.78900653 249.33067671 17.15117563 222.98757935 4.29040527 C195.28739704 -9.20372829 165.93219931 -15.11294996 135.94998169 -5.3873291 C129.56795319 -3.18323466 123.3561537 -0.57338719 117.1399231 2.05603027 C116.46930847 2.33931183 115.79869385 2.62259338 115.10775757 2.91445923 C111.73261315 4.34277468 108.36332944 5.78280795 105.00271606 7.24499512 C75.32662508 20.04401453 44.96138559 21.50564103 14.61257935 9.91540527 C8.74196241 7.40250654 2.94810099 4.72798343 -2.84451294 2.0411377 C-11.17831874 -1.82051843 -19.45991338 -5.46038573 -28.19992065 -8.33459473 C-29.39669434 -8.728927 -29.39669434 -8.728927 -30.61764526 -9.13122559 C-53.524954 -16.32564003 -77.15437879 -14.8014542 -100.38742065 -10.08459473 C-100.38742065 -11.07459473 -100.38742065 -12.06459473 -100.38742065 -13.08459473 C-63.36547174 -20.38793204 -34.15918007 -15.51836561 0 0 Z " fill="#FFFFFF" transform="translate(100.38742065429688,57.0845947265625)"/>
<path d="M0 0 C0.64759277 0.16677246 1.29518555 0.33354492 1.96240234 0.50537109 C14.37226465 3.86326207 25.97478614 9.43276026 37.57275391 14.88598633 C64.45290385 27.44061746 95.07778809 33.96671486 124 24 C132.43927782 20.92619579 140.72037269 17.47595643 149 14 C181.66569162 0.39870131 212.05856386 -3.98550719 246 9 C250.67095799 10.9828345 255.22440793 13.21736938 259.78146362 15.44668579 C289.43357358 29.91207509 319.22254519 38.73822276 351.91552734 28.30297852 C361.95842 24.82813265 371.60700247 20.23764795 381.23388672 15.75830078 C392.33087126 10.64798775 403.78496513 6.01154762 415.9375 4.1875 C416.68708984 4.07132324 417.43667969 3.95514648 418.20898438 3.83544922 C446.62332407 -0.2280168 470.05460928 8.9765035 495.14111328 21.28808594 C508.41214545 27.75505407 521.4608634 32.37327802 536 35 C536 35.66 536 36.32 536 37 C519.87929002 37.49160996 505.02245984 29.46234668 490.92578125 22.50390625 C474.35534253 14.35537592 457.63724323 7.18262178 439 6 C438.03707031 5.93039063 437.07414062 5.86078125 436.08203125 5.7890625 C413.1944603 4.96826685 393.03788896 13.80933059 372.76611328 23.24169922 C361.67543659 28.3491074 350.10367577 32.97487137 338 35 C337.35804688 35.11085937 336.71609375 35.22171875 336.0546875 35.3359375 C307.27110281 39.38533915 282.15862221 29.88465778 256.78295898 17.46972656 C229.96295363 4.43958814 200.6785233 -1.15754713 171.7109375 8.37109375 C163.40355912 11.25652198 155.33502348 14.69178386 147.26123047 18.16821289 C115.35613371 31.89407535 84.15942824 37.24874126 50.8125 24.01953125 C45.48773669 21.79812067 40.2444751 19.40332796 35 17 C3.35940467 2.68945663 -24.31110241 -3.27904458 -58.95141602 2.72460938 C-61 3 -61 3 -65 3 C-65 2.34 -65 1.68 -65 1 C-62.85548495 0.51496744 -60.70930465 0.03729595 -58.5625 -0.4375 C-57.36753906 -0.70433594 -56.17257813 -0.97117188 -54.94140625 -1.24609375 C-37.23265579 -4.82899577 -17.48625532 -4.56219374 0 0 Z " fill="#FFFFFF" transform="translate(65,53)"/>
<path d="M0 0 C24.77755269 11.32904894 51.61282695 16.73506656 78.375 9.1875 C79.0261377 9.00477539 79.67727539 8.82205078 80.34814453 8.63378906 C90.18563446 5.79645477 99.42977683 1.89989828 108.75 -2.3125 C137.33406044 -15.15943876 167.25444843 -20.65623984 197.59423828 -10.03564453 C205.46055748 -7.04710006 213.05722875 -3.44674871 220.65234375 0.1640625 C249.24531015 13.71132049 280.03201994 23.08996312 311.375 12.1875 C321.20978578 8.52668841 330.7957647 4.27870332 340.34375 -0.06640625 C369.80395006 -13.47101559 399.41953517 -17.61285187 430.38647461 -6.13891602 C439.40048777 -2.6002274 448.07533011 1.75235667 456.7097168 6.12426758 C468.82257486 12.16769188 481.1782055 16.16477053 494.375 19.1875 C494.375 19.8475 494.375 20.5075 494.375 21.1875 C476.63373192 20.23707492 460.11067563 11.45191486 444.44140625 3.78125 C417.32612612 -9.45391445 389.18666451 -14.72982976 359.96948242 -4.75732422 C349.34652726 -0.94092501 339.08799695 3.80020103 328.86450195 8.56787109 C301.0454501 21.37264512 271.50186646 23.89507009 242.48876953 13.42822266 C234.47934788 10.23676266 226.7425047 6.39405647 218.97265625 2.66625977 C209.61453117 -1.81783896 200.3584707 -5.92490422 190.375 -8.8125 C189.32828125 -9.14507812 188.2815625 -9.47765625 187.203125 -9.8203125 C158.68191394 -17.54190866 132.40228839 -8.73928656 106.375 2.1875 C71.27268159 16.80335822 39.47535668 19.81431293 3.72460938 5.18530273 C-2.99016221 2.3704779 -9.62995437 -0.59533519 -16.25 -3.625 C-45.47409055 -16.98846095 -74.15669337 -18.5340103 -105.625 -12.8125 C-105.625 -13.4725 -105.625 -14.1325 -105.625 -14.8125 C-103.79330682 -15.29789869 -101.95953941 -15.77547186 -100.125 -16.25 C-99.1040625 -16.51683594 -98.083125 -16.78367187 -97.03125 -17.05859375 C-62.25218174 -24.7562545 -31.25623941 -14.29194274 0 0 Z " fill="#FFFFFF" transform="translate(105.625,39.8125)"/>
<path d="M0 0 C30.0860056 14.04298973 60.78171155 19.79418003 92.78955078 8.26538086 C99.31754849 5.79550653 105.69282144 2.96781628 112.08963013 0.18008423 C144.20714816 -13.81295046 175.44973017 -18.63554089 208.9375 -5.5625 C215.82879575 -2.58863888 222.57453531 0.71434155 229.34106445 3.95874023 C238.69535915 8.43799647 247.93768991 12.61170481 257.9375 15.4375 C259.10410156 15.77007812 260.27070313 16.10265625 261.47265625 16.4453125 C290.36340265 23.42436114 317.35487049 14.80955374 343.30981445 2.52148438 C369.65590232 -9.90171192 399.49146094 -16.34473257 427.9375 -6.5625 C437.81588182 -2.90164487 447.30175941 1.4253978 456.77636719 6.01675415 C468.27787003 11.5708147 479.41481665 16.61119994 491.9375 19.4375 C493.41750923 19.80259077 494.89667377 20.17112181 496.375 20.54296875 C497.550625 20.83816406 498.72625 21.13335937 499.9375 21.4375 C499.9375 22.0975 499.9375 22.7575 499.9375 23.4375 C484.30300757 22.5847095 470.93617017 16.20376404 457.10229492 9.38989258 C428.27935315 -4.78687692 398.80568872 -13.97907542 366.9375 -3.5625 C356.62872387 0.01921997 346.72167913 4.51402434 336.8125 9.0625 C330.42909653 11.98783626 324.03194581 14.63434187 317.375 16.875 C316.68583496 17.10977051 315.99666992 17.34454102 315.28662109 17.58642578 C305.3487528 20.79917047 295.60110673 21.80392059 285.1875 21.75 C284.04224854 21.74436035 282.89699707 21.7387207 281.71704102 21.73291016 C273.08506197 21.60943025 265.25871938 20.88268747 256.9375 18.4375 C255.76445312 18.10492188 254.59140625 17.77234375 253.3828125 17.4296875 C241.70092563 13.81411572 230.73620026 8.25438014 219.77172852 2.90722656 C191.13017111 -10.95408422 161.63906828 -14.72932686 131.13696289 -4.32006836 C123.24982252 -1.469305 115.63618216 2.03673318 107.98608398 5.4609375 C77.23725781 19.16588589 46.48539809 21.83055594 14.6875 9.875 C5.77997535 6.39879084 -2.85916319 2.34998619 -11.5222168 -1.68774414 C-29.15029796 -9.842006 -46.3696445 -14.15569543 -65.8125 -13.9375 C-66.50206787 -13.93484131 -67.19163574 -13.93218262 -67.90209961 -13.92944336 C-79.15648274 -13.87869519 -90.04738632 -12.94721533 -101.0625 -10.5625 C-100.7325 -11.5525 -100.4025 -12.5425 -100.0625 -13.5625 C-63.4227868 -20.615423 -33.54198731 -15.68997576 0 0 Z " fill="#FFFFFF" transform="translate(101.0625,47.5625)"/>
<path d="M0 0 C30.67428076 14.13596209 59.92016286 18.14547766 92.41098022 7.00094604 C97.67774142 5.00476538 102.83575726 2.74928748 107.99682617 0.49685669 C139.65403664 -13.27580874 171.08798775 -19.77401099 204.40292358 -7.32546997 C213.59326947 -3.70024104 222.50986331 0.61605637 231.39022827 4.93771362 C259.44121514 18.48034118 288.44116611 22.43545719 318.28109741 12.1322937 C326.87399461 8.96073346 335.10234355 4.92057353 343.39486694 1.04977417 C371.55524523 -11.93839079 400.76598107 -16.45158962 430.43295288 -5.74514771 C438.30190059 -2.77705289 445.90585911 0.76270631 453.45394897 4.46188354 C463.38541545 9.31635139 473.15339118 13.57760012 483.72348022 16.84469604 C486.69509045 17.77647213 489.5445059 18.79165219 492.41098022 20.00094604 C492.41098022 20.66094604 492.41098022 21.32094604 492.41098022 22.00094604 C475.3375697 18.54762539 460.13104016 11.31846875 444.53598022 3.75094604 C418.84641837 -8.6909543 391.11948615 -13.06380341 363.50473022 -3.94436646 C355.85406334 -1.16893796 348.50453171 2.40824042 341.12088013 5.81808472 C310.7332832 19.83822093 280.1060021 26.84735215 247.52035522 15.34078979 C238.41363008 11.91240759 229.70376179 7.71760845 220.97348022 3.43844604 C192.37674836 -10.54848462 163.00302856 -15.87702553 132.27084351 -5.79177856 C123.86449859 -2.89853566 115.72797405 0.53638597 107.59848022 4.12594604 C75.02705339 18.49774588 43.91147098 20.92613 10.30502319 8.17721558 C3.7848037 5.52710443 -2.54508313 2.44760718 -8.89981079 -0.57254028 C-15.8481206 -3.83974954 -22.79756017 -6.71470208 -30.08901978 -9.12405396 C-30.9062854 -9.39475708 -31.72355103 -9.66546021 -32.56558228 -9.94436646 C-55.62569212 -17.25053987 -79.16996567 -15.81154375 -102.58901978 -10.99905396 C-102.58901978 -11.98905396 -102.58901978 -12.97905396 -102.58901978 -13.99905396 C-65.04125581 -21.95917992 -34.4867016 -15.9379924 0 0 Z " fill="#FFFFFF" transform="translate(102.58901977539063,18.999053955078125)"/>
<path d="M0 0 C0.64614258 0.16677246 1.29228516 0.33354492 1.95800781 0.50537109 C14.36976794 3.86295043 25.97319898 9.432014 37.57275391 14.88598633 C65.5063259 27.93356478 96.58370543 33.69873819 126.390625 23.15429688 C133.18123644 20.63984877 139.82618726 17.7974814 146.47509766 14.93408203 C164.97161471 6.9701503 182.33260142 0.58327565 202.75 0.6875 C203.89380127 0.69241455 205.03760254 0.6973291 206.21606445 0.70239258 C225.50101877 0.96896705 242.64423744 7.06318631 259.77871704 15.44641113 C290.34690272 30.34268528 320.79091023 38.8693349 354.21484375 27.38427734 C363.13006924 24.15360219 371.70539916 20.38224778 380.22509766 16.22949219 C407.78932917 2.84131792 437.31671505 -1.56249913 466.75 8.3125 C475.61713278 11.46038009 483.986873 15.79151497 492.41412354 19.94293213 C505.58501718 26.42508197 518.71337825 31.48234367 533 35 C533 35.66 533 36.32 533 37 C515.87805679 35.20465275 500.75960532 27.30378624 485.49658203 19.82592773 C458.17890525 6.5333454 429.61243012 1.24570399 400.1875 11.375 C390.82525763 14.75294153 381.78480989 19.04516881 372.76635742 23.24169922 C361.66812312 28.35223683 350.21565882 32.98602214 338.0625 34.8125 C337.31581055 34.92940186 336.56912109 35.04630371 335.79980469 35.16674805 C307.64586623 39.22569672 284.06648892 30.26584598 259.11181641 18.45849609 C228.31867367 4.02587137 198.19294712 -1.16376631 165.4375 10.5625 C156.47054612 13.87651058 147.73821266 17.68021051 139.00073242 21.55102539 C109.81654349 34.38623319 79.51731878 34.84448665 49.8671875 23.43359375 C43.01164408 20.7096964 36.30072163 17.68901956 29.60205078 14.60302734 C0.26619731 1.13933147 -27.04549861 -3.27874831 -59.07495117 2.72460938 C-61 3 -61 3 -65 3 C-65 2.34 -65 1.68 -65 1 C-62.83432456 0.51637304 -60.66740259 0.03832683 -58.5 -0.4375 C-57.2934375 -0.70433594 -56.086875 -0.97117187 -54.84375 -1.24609375 C-37.11117524 -4.72412925 -17.51793754 -4.60792247 0 0 Z " fill="#FFFFFF" transform="translate(65,14)"/>
<path d="M0 0 C1.18207031 0.32871094 2.36414063 0.65742187 3.58203125 0.99609375 C13.58746431 4.07550818 22.95945595 8.48727935 32.45800781 12.84033203 C64.30418299 27.36869662 95.41875609 33.68732494 129.3125 21.5 C134.56439948 19.48130114 139.7379171 17.27165888 144.921875 15.0859375 C146.18966408 14.55395736 147.45748678 14.02205733 148.7253418 13.49023438 C151.21728676 12.44464432 153.7010106 11.38424811 156.18286133 10.31445312 C180.56177707 0.00754023 208.50230213 -3.4813395 234 5 C235.16273438 5.36609375 236.32546875 5.7321875 237.5234375 6.109375 C244.21207257 8.41973509 250.58739381 11.24352816 256.97265625 14.2890625 C257.59980026 14.58818039 258.22694427 14.88729828 258.87309265 15.19548035 C259.51156631 15.50020767 260.15003998 15.804935 260.80786133 16.11889648 C262.12186173 16.74602701 263.43590825 17.37306091 264.75 18 C265.72578506 18.46589035 265.72578506 18.46589035 266.72128296 18.94119263 C291.84849284 30.88529042 321.38369598 38.06860218 348.73828125 28.82666016 C357.64000111 25.57307386 366.32520201 21.80916651 375 18 C399.16912966 7.42423369 399.16912966 7.42423369 409 5 C409.88429688 4.77699219 410.76859375 4.55398437 411.6796875 4.32421875 C441.5822344 -1.90194895 468.11974432 7.98360191 494.45770264 20.99905396 C507.01619237 27.19243507 519.41121027 31.68198253 533 35 C533 35.66 533 36.32 533 37 C527.21257135 36.51604835 521.77799815 35.65560852 516.25 33.8125 C515.50613037 33.5662085 514.76226074 33.31991699 513.99584961 33.06616211 C506.23956007 30.33714016 498.92434428 26.694141 491.5625 23.0625 C462.49938216 8.7434889 433.5757917 0.09504005 401.5546875 10.37109375 C391.34226361 13.87623305 381.63158389 18.4273904 371.86450195 23.00170898 C363.09805137 27.0620415 354.28131667 30.33439813 345 33 C344.12214844 33.25265625 343.24429687 33.5053125 342.33984375 33.765625 C313.56319237 40.6759701 286.66349538 31.93761029 260.97061157 19.55426025 C232.75795967 5.96737451 201.87358415 -2.56855194 171 8 C162.55934151 11.06959189 154.27943563 14.52412404 146 18 C119.36003599 29.09231397 91.74159802 36.40981736 63 28 C62.35998047 27.82259277 61.71996094 27.64518555 61.06054688 27.46240234 C49.69817454 24.26368291 39.21201148 19.4326322 28.55688477 14.40478516 C-2.52196847 -0.17778866 -32.21155939 -2.73959355 -66 3 C-66 2.34 -66 1.68 -66 1 C-64.16830682 0.51460131 -62.33453941 0.03702814 -60.5 -0.4375 C-59.4790625 -0.70433594 -58.458125 -0.97117188 -57.40625 -1.24609375 C-39.58891255 -5.18960995 -17.60494947 -4.9582925 0 0 Z " fill="#FFFFFF" transform="translate(66,63)"/>
<path d="M0 0 C32.3586402 14.54020981 62.84965519 20.87483934 97.15527344 8.48413086 C104.14306965 5.81771595 110.92613519 2.66232248 117.74462891 -0.40429688 C146.58264989 -13.23516486 176.34338261 -16.8822756 206.54980469 -6.29711914 C214.05563753 -3.35944299 221.29922235 0.22610451 228.58618164 3.6628418 C258.10475642 17.56361436 287.6418234 25.41435518 319.58764648 14.44091797 C329.73946069 10.77895598 339.52253366 6.26763608 349.35351562 1.83251953 C357.47671649 -1.8083366 365.48908331 -5.09478876 374.08105469 -7.45336914 C374.9125 -7.68282227 375.74394531 -7.91227539 376.60058594 -8.14868164 C408.721563 -15.71282549 437.61738388 -3.59662175 465.95629883 10.26098633 C473.87156076 14.08399159 481.67468433 17.02471975 490.08105469 19.54663086 C491.75540942 20.19374634 493.42517164 20.85361314 495.08105469 21.54663086 C495.08105469 21.87663086 495.08105469 22.20663086 495.08105469 22.54663086 C489.21053539 22.33696946 484.21155304 21.05035601 478.74121094 18.96459961 C477.69592979 18.56894554 477.69592979 18.56894554 476.62953186 18.16529846 C468.20455695 14.91008302 460.1187539 10.95765428 452.00561523 7.00292969 C425.80107142 -5.72898806 396.55529737 -12.29160727 368.08105469 -2.45336914 C358.2447409 1.20227238 348.6598553 5.45562536 339.11230469 9.80053711 C308.63033209 23.67006053 279.22506933 26.89874552 247.22888184 15.37338257 C239.41009297 12.36373765 231.89254869 8.5410875 224.34765625 4.91235352 C194.64873271 -9.32069224 165.20918153 -13.93156717 133.58740234 -3.28125 C126.25173342 -0.66936618 119.15057099 2.493605 112.01855469 5.60913086 C80.59878103 19.33362646 49.44388853 23.20396742 16.86230469 10.90991211 C8.263366 7.49281953 -0.14295941 3.56623682 -8.50585938 -0.39013672 C-37.75121234 -14.09853459 -67.47201022 -15.96440856 -98.91894531 -9.45336914 C-98.91894531 -10.44336914 -98.91894531 -11.43336914 -98.91894531 -12.45336914 C-63.10113781 -19.59895433 -33.2934911 -14.9895088 0 0 Z " fill="#FFFFFF" transform="translate(98.9189453125,95.453369140625)"/>
<path d="M0 0 C0.70914551 0.2254248 1.41829102 0.45084961 2.14892578 0.68310547 C12.5440053 4.03584296 22.3716485 8.49136576 32.25 13.125 C63.30224286 27.67676272 93.4144736 31.71749356 126.12573242 20.04516602 C132.79610228 17.56668776 139.30449582 14.7485949 145.8125 11.875 C175.72421304 -1.32322908 205.61555087 -5.60326387 237 6 C243.77683547 8.7516121 250.38351784 11.88754636 257 15 C286.463821 28.79703836 316.3948008 37.28614181 348.38769531 26.17041016 C357.84156415 22.71373398 366.98247561 18.57156857 376.125 14.375 C382.50840347 11.44966374 388.90555419 8.80315813 395.5625 6.5625 C396.25166504 6.32772949 396.94083008 6.09295898 397.65087891 5.85107422 C427.64086141 -3.84417976 456.32851384 3.28464265 483.61108398 16.71020508 C497.43118275 23.50359067 511.6721595 30.39364655 527 33 C527 33.66 527 34.32 527 35 C520.50521799 34.5741538 514.76819362 33.63509732 508.6875 31.3125 C507.50909546 30.87369507 507.50909546 30.87369507 506.30688477 30.42602539 C497.81038822 27.13531623 489.70308418 23.02971253 481.54092407 19.00149536 C474.12117668 15.3493888 466.74350011 11.83890131 458.875 9.25 C458.22072021 9.034646 457.56644043 8.81929199 456.89233398 8.59741211 C447.63898207 5.76421956 438.40600057 4.63076771 428.75 4.6875 C427.24566406 4.69487183 427.24566406 4.69487183 425.7109375 4.70239258 C405.51961907 5.01869296 387.59255175 12.41075657 369.62768555 20.91601562 C341.50938707 34.17487756 311.11142103 39.41382286 281 29 C271.29832073 25.40418458 261.98607032 20.97582072 252.68579102 16.4621582 C222.45031255 1.81563335 193.22543853 -2.0583293 161 9 C155.73331584 10.99639704 150.57522958 13.25165568 145.41415405 15.50408936 C111.09440974 30.43510662 78.82927298 35.33123608 43.140625 21.42041016 C35.23707476 18.21906431 27.54849247 14.56653107 19.83032227 10.94726562 C13.553973 8.04790116 7.28427775 5.51092559 0.6875 3.4375 C-0.0338916 3.21046387 -0.7552832 2.98342773 -1.49853516 2.74951172 C-12.3001774 -0.46030439 -22.68588532 -1.35690423 -33.9375 -1.3125 C-34.61177032 -1.31233887 -35.28604065 -1.31217773 -35.98074341 -1.31201172 C-47.51979238 -1.29288896 -58.67580739 -0.26214549 -70 2 C-69.67 1.01 -69.34 0.02 -69 -1 C-47.82323894 -6.50726913 -20.85009345 -6.98389245 0 0 Z " fill="#FFFFFF" transform="translate(70,74)"/>
<path d="M0 0 C29.41045939 13.51885095 59.78742884 20.40354886 91.32791138 9.02047729 C98.76328285 6.18123707 106.10918309 3.12489273 113.45291138 0.05807495 C143.96357056 -12.62619081 174.4349046 -18.59273676 206.39041138 -6.50442505 C212.54211757 -3.89278865 218.57052216 -1.02168071 224.61941528 1.818573 C255.97560146 16.53429875 285.73489407 25.36848703 319.99002075 13.01119995 C328.33134227 9.78315483 336.44993175 5.98270857 344.60818481 2.32369995 C374.00466727 -10.75485867 404.03381835 -15.80837885 434.75759888 -4.1958313 C443.25451265 -0.79706579 451.43434866 3.3077313 459.64260864 7.34176636 C469.20627365 12.02152362 479.00840657 16.69715495 489.45291138 19.05807495 C489.45291138 19.71807495 489.45291138 20.37807495 489.45291138 21.05807495 C483.33720215 20.54785795 478.48717135 19.14901581 472.89041138 16.68307495 C472.08104126 16.33583374 471.27167114 15.98859253 470.43777466 15.63082886 C464.81161591 13.18425537 459.28563525 10.55223262 453.77053833 7.86618042 C423.71183376 -6.77288005 395.1979571 -12.78892979 362.6267395 -1.73538208 C357.42789296 0.16222026 352.42097283 2.49722112 347.39431763 4.8041687 C315.47385423 19.45264534 284.05572827 28.58337479 249.70291138 16.24557495 C239.70617263 12.48947635 230.07004811 7.79161391 220.47341919 3.12130737 C191.17462546 -11.0231562 161.92376851 -14.0488113 130.84207153 -3.69729614 C124.08441603 -1.32183487 117.60109443 1.6093881 111.07791138 4.55807495 C80.6387044 18.25744694 49.42936817 22.70229778 17.45291138 11.05807495 C10.02339151 8.06444101 2.7395681 4.73587886 -4.54953003 1.41842651 C-33.22478198 -11.59497175 -60.06582382 -17.02446211 -91.38693237 -11.59817505 C-94.48003127 -11.06969898 -97.39852788 -10.78926756 -100.54708862 -10.94192505 C-100.54708862 -11.60192505 -100.54708862 -12.26192505 -100.54708862 -12.94192505 C-98.40257357 -13.42695761 -96.25639327 -13.9046291 -94.10958862 -14.37942505 C-92.91462769 -14.64626099 -91.71966675 -14.91309692 -90.48849487 -15.1880188 C-58.05996855 -21.75654822 -29.16788529 -13.42099285 0 0 Z " fill="#FFFFFF" transform="translate(100.54708862304688,105.94192504882813)"/>
<path d="M0 0 C6.92662702 3.23775136 13.85786412 6.12823809 21.11108398 8.55151367 C22.31172485 8.95756836 22.31172485 8.95756836 23.53662109 9.37182617 C54.99831823 19.42177248 83.74513506 11.21455653 112.87670898 -1.17504883 C140.05729694 -12.73189826 168.71182494 -19.22787144 197.73608398 -9.57348633 C198.89881836 -9.20739258 200.06155273 -8.84129883 201.25952148 -8.46411133 C207.99825893 -6.13644509 214.43423516 -3.28059852 220.88452148 -0.24926758 C221.85223228 0.20533844 221.85223228 0.20533844 222.8394928 0.66912842 C226.08908937 2.20006348 229.33099118 3.74499422 232.56298828 5.31274414 C258.92774186 17.9891928 287.28247339 22.6604944 315.60717773 13.37182617 C323.27567066 10.61224101 330.63252177 7.02417525 338.02590942 3.609375 C369.17243201 -10.76069647 399.17105277 -16.90585479 432.37670898 -5.34692383 C439.15006766 -2.70925269 445.63619579 0.61758376 452.14990234 3.83032227 C459.89030843 7.62635204 467.7088379 10.9709469 475.80712891 13.92773438 C477.81468289 14.68227244 479.78111115 15.54465092 481.73608398 16.42651367 C482.06608398 17.41651367 482.39608398 18.40651367 482.73608398 19.42651367 C471.26462682 16.65952903 460.53553274 11.27874518 449.98217773 6.11401367 C421.38766797 -7.85813643 393.71000848 -13.2279379 362.75952148 -3.35864258 C353.46683599 -0.15005416 344.64772209 4.22541607 335.75219727 8.37768555 C323.98752703 13.80380149 311.65322918 18.67233346 298.73608398 20.42651367 C297.93299805 20.53608398 297.12991211 20.6456543 296.30249023 20.75854492 C271.73830016 23.63267013 249.22854944 16.83607221 227.26342773 6.36010742 C196.35255832 -8.37259495 165.53935381 -17.24409881 131.73608398 -5.57348633 C123.60827161 -2.53996058 115.67214727 0.92874123 107.73608398 4.42651367 C80.70070561 16.17870344 51.58336139 21.61276086 22.73608398 12.42651367 C21.53854492 12.04881836 20.34100586 11.67112305 19.10717773 11.28198242 C8.64564426 7.60990651 -1.39666272 2.84670117 -11.44677734 -1.81542969 C-38.2848781 -14.11798425 -65.67621403 -18.18671297 -94.84985352 -12.22973633 C-98.26391602 -11.57348633 -98.26391602 -11.57348633 -102.26391602 -11.57348633 C-102.26391602 -12.23348633 -102.26391602 -12.89348633 -102.26391602 -13.57348633 C-100.26518863 -14.05793397 -98.26485665 -14.53576293 -96.26391602 -15.01098633 C-95.15016602 -15.27782227 -94.03641602 -15.5446582 -92.88891602 -15.81958008 C-59.43668041 -22.77677994 -29.94099938 -14.16291677 0 0 Z " fill="#FFFFFF" transform="translate(102.263916015625,116.573486328125)"/>
<path d="M0 0 C0.69084686 -0.00749268 1.38169373 -0.01498535 2.09347534 -0.02270508 C16.39640067 -0.14968229 29.82005544 1.86846254 43.25 7 C44.17594971 7.34409912 45.10189941 7.68819824 46.0559082 8.04272461 C53.03864564 10.69636763 59.74492713 13.79504807 66.45092773 17.07519531 C96.26231454 31.52729859 127.2742937 36.17827524 159 25.3125 C167.5770411 22.26653369 175.87615019 18.63327475 184.19238281 14.94506836 C212.69531288 2.37866086 242.36212785 -0.62978696 272.04296875 10.171875 C280.06210281 13.31368236 287.79052316 17.17416232 295.55633545 20.88839722 C325.52226139 35.20589475 355.00941731 40.58016672 387.15161133 29.50634766 C394.7396905 26.75110031 402.00348116 23.28732589 409.3125 19.875 C435.05959596 7.87180483 462.30063179 1.26882773 490.4375 9.375 C491.64792969 9.71917969 492.85835937 10.06335938 494.10546875 10.41796875 C506.55701636 14.28434555 518.15504691 20.3769413 529.8125 26.1328125 C534.97062171 28.67816972 540.15978655 31.08874913 545.4375 33.375 C545.4375 34.035 545.4375 34.695 545.4375 35.375 C537.22575468 33.40055829 529.95309874 29.85573312 522.46157837 26.07919312 C510.74319746 20.19305878 499.18064994 14.68081177 486.4375 11.375 C485.45652344 11.11589844 484.47554687 10.85679688 483.46484375 10.58984375 C457.62589974 5.10224805 432.41897273 12.40442381 409.19699097 23.3944397 C378.78281858 37.73556649 347.3436186 44.40526537 314.70703125 32.71484375 C305.48896917 29.25052143 296.65254606 25.07395151 287.8125 20.75 C278.23103622 16.06423313 268.69416435 12.29339109 258.4375 9.375 C257.11878906 8.99601562 257.11878906 8.99601562 255.7734375 8.609375 C227.52267962 1.81366005 201.10020497 10.82546506 175.45898438 22.0402832 C145.11653671 35.2932345 113.99001547 39.42005266 82.46875 27.44140625 C75.29961561 24.57761646 68.31275093 21.2777961 61.29190063 18.07192993 C53.27195705 14.41965758 45.24233356 10.98306986 36.875 8.1875 C36.08641602 7.92074463 35.29783203 7.65398926 34.48535156 7.37915039 C23.36506869 3.83004866 12.37249075 3.01502796 0.75 3.0625 C-0.56331299 3.06378906 -1.87662598 3.06507812 -3.22973633 3.06640625 C-13.02680218 3.16310174 -22.02016285 4.25728185 -31.5625 6.375 C-32.5525 6.375 -33.5425 6.375 -34.5625 6.375 C-34.2325 5.385 -33.9025 4.395 -33.5625 3.375 C-22.43543367 0.5210349 -11.42214058 0.04253396 0 0 Z " fill="#FFFFFF" transform="translate(34.5625,108.625)"/>
<path d="M0 0 C26.43208609 -0.65936874 48.56592474 7.91635543 72.1706543 18.69042969 C84.06793605 24.09360125 96.12670747 29.15298302 109.1640625 30.97265625 C109.96030029 31.08955811 110.75653809 31.20645996 111.5769043 31.3269043 C136.3928064 34.7125821 158.76048044 28.15994686 181.1640625 18.16015625 C212.74370038 4.06465288 243.39496141 -0.7338473 276.53314209 11.33340454 C284.36318893 14.37129586 291.90129362 18.17272196 299.47290039 21.79443359 C327.75012751 35.2747923 356.7009377 41.51210594 387.16845703 31.05444336 C397.32265025 27.39511014 407.10560174 22.87936011 416.9387207 18.44604492 C442.52991082 6.98167285 470.38941472 2.16262508 497.6640625 11.16015625 C499.54931641 11.76150391 499.54931641 11.76150391 501.47265625 12.375 C512.53165736 16.11907819 522.84165854 21.56301962 533.19921875 26.89550781 C536.67380923 28.67823154 540.16787359 30.42023046 543.6640625 32.16015625 C541.01274238 33.18580975 539.87368258 33.2346901 537.15307617 32.26733398 C535.75665894 31.56265991 535.75665894 31.56265991 534.33203125 30.84375 C533.29344971 30.32941406 532.25486816 29.81507813 531.18481445 29.28515625 C530.08484131 28.72828125 528.98486816 28.17140625 527.8515625 27.59765625 C525.57978162 26.47840206 523.3063484 25.36249521 521.03125 24.25 C519.38334473 23.44344971 519.38334473 23.44344971 517.70214844 22.62060547 C492.29122953 10.40523124 463.97288974 5.1366747 436.6640625 14.16015625 C434.80974609 14.76150391 434.80974609 14.76150391 432.91796875 15.375 C424.56204432 18.2571323 416.60675269 21.99488286 408.6015625 25.72265625 C399.752303 29.83723193 391.10401039 33.58858424 381.6640625 36.16015625 C380.54257812 36.47597656 379.42109375 36.79179687 378.265625 37.1171875 C346.00645531 44.91493382 317.28105957 34.13949156 288.68505859 20.22338867 C277.54666353 14.84786293 265.92603678 10.20778691 253.6640625 8.16015625 C253.01050781 8.04929687 252.35695313 7.9384375 251.68359375 7.82421875 C225.01007943 4.1209541 201.81108367 12.51598631 177.76226807 23.02651978 C147.84001459 36.07061635 116.73886954 39.99427365 85.68359375 27.98486328 C80.98704945 26.06695629 76.38599372 23.93296932 71.77441406 21.82104492 C51.41289908 12.52731993 31.33050242 3.93478941 8.6640625 3.16015625 C7.90996094 3.12019531 7.15585937 3.08023438 6.37890625 3.0390625 C-6.10852923 2.67493488 -19.14898366 4.58583342 -31.3359375 7.16015625 C-31.3359375 6.17015625 -31.3359375 5.18015625 -31.3359375 4.16015625 C-20.86633218 2.04763436 -10.68495458 0.51297791 0 0 Z " fill="#FFFFFF" transform="translate(31.3359375,117.83984375)"/>
<path d="M0 0 C31.22781815 14.35443579 61.36277928 19.75116217 94.43505859 8.20407104 C101.18151374 5.64194641 107.74874996 2.63120926 114.33605957 -0.31109619 C144.32381187 -13.67335527 175.04859298 -17.90598134 206.40307617 -6.2661438 C214.26148071 -3.1885088 221.83794934 0.49448277 229.45263672 4.12057495 C259.88990839 18.60662424 288.96300126 23.80243836 321.44067383 12.5451355 C328.12516449 10.13453693 334.52785125 7.07960855 340.95263672 4.05807495 C353.82750762 -1.99689066 366.79170967 -7.77978214 381.01513672 -9.75442505 C381.81395264 -9.8713269 382.61276855 -9.98822876 383.43579102 -10.1086731 C407.98130353 -13.46282512 429.37119304 -7.03820753 451.32763672 3.18307495 C452.0035083 3.49643799 452.67937988 3.80980103 453.37573242 4.13265991 C455.31988635 5.03880532 457.25835218 5.95595483 459.19482422 6.87838745 C460.89421143 7.68687134 460.89421143 7.68687134 462.62792969 8.51168823 C465.0692888 9.84821102 466.66657545 10.9621466 468.45263672 13.05807495 C467.79263672 13.38807495 467.13263672 13.71807495 466.45263672 14.05807495 C464.03271484 13.07345581 464.03271484 13.07345581 460.98388672 11.5229187 C459.30335205 10.68337646 459.30335205 10.68337646 457.58886719 9.82687378 C456.99507263 9.52729767 456.40127808 9.22772156 455.78948975 8.91906738 C426.2641414 -5.92503573 397.2663014 -12.9513368 364.90576172 -2.54348755 C359.26507298 -0.59747491 353.88198853 1.88804232 348.47290039 4.39474487 C341.55979329 7.59470703 334.57429432 10.56978341 327.51513672 13.43307495 C326.50966797 13.84968384 325.50419922 14.26629272 324.46826172 14.69552612 C297.49098828 25.54344841 269.0064174 24.33899806 242.3984375 13.33786011 C235.00513167 10.12588355 227.72115138 6.64845366 220.47338867 3.12130737 C194.21386987 -9.55526521 165.85734497 -14.61830937 137.45263672 -5.94192505 C130.00204055 -3.3422566 122.73188035 -0.30060798 115.46972656 2.77975464 C82.71186014 16.65903839 50.43942857 24.01990605 16.09716797 10.37057495 C11.18029364 8.34696519 6.31377303 6.21150452 1.45263672 4.05807495 C-33.42105649 -11.38889163 -62.70312053 -17.96241271 -100.54736328 -9.94192505 C-100.54736328 -10.93192505 -100.54736328 -11.92192505 -100.54736328 -12.94192505 C-98.23582588 -13.42616016 -95.92328957 -13.90436616 -93.60986328 -14.37942505 C-92.32208984 -14.64626099 -91.03431641 -14.91309692 -89.70751953 -15.1880188 C-57.4475474 -21.337528 -29.06154847 -13.3702703 0 0 Z " fill="#FFFFFF" transform="translate(100.54736328125,144.94192504882813)"/>
<path d="M0 0 C6.68443216 3.09114124 13.39865254 5.79996231 20.38500977 8.13085938 C21.20146973 8.40542969 22.01792969 8.68 22.85913086 8.96289062 C33.13475051 12.25579306 43.0501783 13.43663741 53.82250977 13.38085938 C55.54038696 13.3723999 55.54038696 13.3723999 57.29296875 13.36376953 C76.82781215 13.08432485 93.49942354 6.54824619 111.17172241 -1.18933105 C138.68033512 -13.23271194 167.60268043 -19.29807731 197.07250977 -9.93164062 C198.93842773 -9.34769531 198.93842773 -9.34769531 200.84204102 -8.75195312 C210.53295292 -5.47526916 219.60090416 -0.81925037 228.77490234 3.66381836 C237.36961011 7.82511602 245.92970805 11.32358592 255.07250977 14.06835938 C256.14758789 14.39320313 257.22266602 14.71804687 258.33032227 15.05273438 C286.33992121 22.49388096 312.16420832 15.04232072 337.56713867 3.22802734 C367.63418298 -10.68918767 398.03665664 -17.58402488 430.24829102 -6.16601562 C440.62697298 -2.25782385 450.44495125 2.58356846 460.07250977 8.06835938 C457.63580854 8.94544741 456.41667412 9.18476618 453.92871094 8.34326172 C453.16534424 7.95090332 452.40197754 7.55854492 451.61547852 7.15429688 C450.75792969 6.72511963 449.90038086 6.29594238 449.0168457 5.85375977 C448.10708984 5.38832764 447.19733398 4.92289551 446.26000977 4.44335938 C418.34629648 -9.29146722 390.80366548 -13.03652953 360.98468018 -3.06707764 C354.03800483 -0.66225292 347.41639437 2.39692451 340.76000977 5.50585938 C310.15494234 19.56739312 280.11037122 26.61121714 247.07250977 15.06835938 C239.96144035 12.29836972 233.08665646 8.96160683 226.18823242 5.70800781 C206.42661057 -3.59868872 188.03122485 -11.36439202 165.82250977 -11.24414062 C164.17508789 -11.23568115 164.17508789 -11.23568115 162.49438477 -11.22705078 C141.54211442 -10.91511397 123.57838586 -3.05697204 104.61425781 5.08959961 C96.23764198 8.65551642 87.9077958 11.83047443 79.07250977 14.06835938 C78.00129883 14.3400293 78.00129883 14.3400293 76.90844727 14.6171875 C59.38357845 18.62735699 39.17070501 17.55864525 22.07250977 12.06835938 C20.87625977 11.69066406 19.68000977 11.31296875 18.44750977 10.92382812 C7.98372544 7.2548529 -2.05930211 2.48898053 -12.11035156 -2.17358398 C-39.11280666 -14.55147839 -65.93189684 -18.15492228 -95.25952148 -12.58789062 C-98.92749023 -11.93164062 -98.92749023 -11.93164062 -102.92749023 -11.93164062 C-102.92749023 -12.59164062 -102.92749023 -13.25164062 -102.92749023 -13.93164062 C-100.92876285 -14.41608827 -98.92843087 -14.89391722 -96.92749023 -15.36914062 C-95.81374023 -15.63597656 -94.69999023 -15.9028125 -93.55249023 -16.17773438 C-59.94623356 -23.16696664 -30.07888419 -14.10722042 0 0 Z " fill="#FFFFFF" transform="translate(102.927490234375,155.931640625)"/>
<path d="M0 0 C2.09123944 -0.00961489 4.18145501 -0.04065854 6.27246094 -0.07226562 C29.69979232 -0.25706357 50.31637932 8.30904761 71.19628906 18.1262207 C98.93707503 31.0836468 128.97228591 36.55328626 158.60595703 26.19824219 C165.0082443 23.80226349 171.31442436 21.18762653 177.60693359 18.51855469 C209.60478134 4.96128565 240.90657259 -2.6686942 274.62402344 10.24023438 C281.71225158 13.23474665 288.65453594 16.55257555 295.61376953 19.83251953 C323.73980153 32.9853744 352.90660681 41.38999437 383.62402344 31.24023438 C385.47833984 30.63888672 385.47833984 30.63888672 387.37011719 30.02539062 C395.72604162 27.14325833 403.68133324 23.40550777 411.68652344 19.67773438 C420.53578293 15.5631587 429.18407555 11.81180639 438.62402344 9.24023438 C439.74550781 8.92441406 440.86699219 8.60859375 442.02246094 8.28320312 C470.55502883 1.38625791 498.38298154 8.71967627 523.62402344 22.24023438 C523.62402344 22.90023437 523.62402344 23.56023437 523.62402344 24.24023438 C519.26536007 23.61639555 515.704944 21.93745776 511.81152344 19.99023438 C503.96595953 16.20678621 496.01983893 13.52189973 487.62402344 11.24023438 C486.29757812 10.86898437 486.29757812 10.86898437 484.94433594 10.49023438 C458.9812401 4.51789284 434.23578094 13.03450487 410.89208984 23.64331055 C380.31768959 37.52166947 349.52487821 44.26861424 316.89355469 32.58007812 C307.67549261 29.11575581 298.83906949 24.93918589 289.99902344 20.61523438 C261.27566229 6.56821849 232.11660639 2.0724191 201.35449219 12.13476562 C193.63707386 14.84808232 186.20458273 18.27587098 178.74032593 21.60940552 C146.87287737 35.80946311 115.23016222 38.72370731 82.17089844 26.46679688 C74.66254007 23.54687973 67.4248411 20.02998238 60.14282227 16.59423828 C51.14380079 12.38567435 42.18843104 8.90954053 32.62402344 6.24023438 C31.50898437 5.90378906 30.39394531 5.56734375 29.24511719 5.22070312 C10.5266228 0.47058694 -10.69869771 2.0952108 -29.37597656 6.24023438 C-30.36597656 6.24023438 -31.35597656 6.24023438 -32.37597656 6.24023438 C-32.37597656 5.58023438 -32.37597656 4.92023438 -32.37597656 4.24023438 C-30.52300821 3.75645446 -28.66853216 3.27844802 -26.81347656 2.80273438 C-25.26466797 2.40248047 -25.26466797 2.40248047 -23.68457031 1.99414062 C-15.80046255 0.19764382 -8.04164056 0.0222452 0 0 Z " fill="#FFFFFF" transform="translate(32.3759765625,147.759765625)"/>
<path d="M0 0 C33.28671279 15.0840569 64.39940531 20.50186371 99.2578125 7.44726562 C105.54070572 4.95870329 111.71223775 2.19998704 117.90374756 -0.50601196 C140.40965459 -10.31707867 162.66006049 -15.32296396 187.18945312 -11.45214844 C187.85227295 -11.35135986 188.51509277 -11.25057129 189.19799805 -11.14672852 C201.74233599 -8.91123807 213.25989455 -3.82046089 224.61120605 1.74990845 C237.41665465 8.01013888 250.191218 13.66277881 264.00195312 17.36035156 C265.04738281 17.64136719 266.0928125 17.92238281 267.16992188 18.21191406 C294.93460968 24.08596649 320.450342 15.11940605 345.22338867 3.5324707 C373.67448599 -9.74937448 403.33999814 -14.89608861 433.66992188 -4.36621094 C436.81554392 -3.19326713 439.91185499 -1.95086405 443.00195312 -0.63964844 C443.77925781 -0.31480469 444.5565625 0.01003906 445.35742188 0.34472656 C446.9116783 1.00241591 448.45825361 1.67825178 450.00195312 2.36035156 C450.00195312 3.02035156 450.00195312 3.68035156 450.00195312 4.36035156 C445.93396549 3.75465521 442.33231277 2.41131006 438.52099609 0.93481445 C409.36579222 -10.33377905 381.64900215 -8.73818464 353.00195312 3.36035156 C348.89914888 5.19393875 344.82426345 7.08515235 340.75195312 8.98535156 C331.96335263 13.08476477 323.38366941 16.80464264 314.00195312 19.36035156 C312.88046875 19.67617187 311.75898438 19.99199219 310.60351562 20.31738281 C278.34434593 28.11512913 249.61895019 17.33968687 221.02294922 3.42358398 C209.86261294 -1.96465079 198.33606499 -6.60910329 186.00195312 -8.45214844 C184.87805176 -8.62750122 184.87805176 -8.62750122 183.73144531 -8.80639648 C159.08930123 -12.36506414 136.71032366 -5.55230681 114.50195312 4.36035156 C83.02320055 18.41082499 51.50287575 23.44970581 18.37695312 11.50097656 C9.89543163 8.24242644 1.64892431 4.33935798 -6.57104492 0.47436523 C-36.44000169 -13.47812397 -66.7501521 -16.73871661 -98.99804688 -9.63964844 C-98.66804688 -10.62964844 -98.33804688 -11.61964844 -97.99804688 -12.63964844 C-61.91749396 -19.91986153 -33.13903876 -15.08475847 0 0 Z " fill="#FFFFFF" transform="translate(98.998046875,173.6396484375)"/>
<path d="M0 0 C0.64324219 0.14050781 1.28648438 0.28101563 1.94921875 0.42578125 C14.6220751 3.35028656 26.21576001 8.64482861 38 14 C56.06801237 22.20318552 73.03657661 28.6633561 93 30 C94.23363281 30.08894531 94.23363281 30.08894531 95.4921875 30.1796875 C97.6913866 30.25437728 99.80506979 30.16497841 102 30 C103.11890625 29.92007813 104.2378125 29.84015625 105.390625 29.7578125 C123.43612324 27.99639933 139.47973348 21.55086474 155.97851562 14.3347168 C186.88672156 0.83465403 217.4770952 -2.87616831 249.3984375 9.63671875 C257.73792652 13.05982754 265.87468108 16.99283883 273.97900391 20.93676758 C302.91913169 34.90796328 331.50582456 38.02415245 362.06152344 27.45141602 C368.31368114 25.20634047 374.29836938 22.37146335 380.3125 19.5625 C411.80328151 5.0940239 442.41812284 -1.43674594 476 11 C478.01989922 11.95917002 480.02844812 12.94501982 482 14 C481.34 14.66 480.68 15.32 480 16 C478.81664062 15.59007812 477.63328125 15.18015625 476.4140625 14.7578125 C442.73149529 3.20919794 415.33873042 7.03540044 383.50537109 21.84033203 C352.91159141 36.00135849 321.94309621 42.58679825 289.27954102 30.96411133 C281.07261115 27.8372683 273.20576455 23.89961235 265.28292847 20.12545776 C236.31623996 6.36651716 206.30625443 -0.87664273 175.01367188 10.04199219 C168.61285846 12.43779383 162.30827015 15.05317153 156.01708984 17.72167969 C122.39151993 31.96860347 90.15940969 38.54074965 55 25 C48.35440834 22.16943725 41.7979193 19.1482247 35.24023438 16.12084961 C21.45885975 9.76465587 8.0436129 4.58110644 -7 2 C-8.12341797 1.80277344 -8.12341797 1.80277344 -9.26953125 1.6015625 C-25.91560802 -0.75371414 -43.72431843 1.24099738 -60 5 C-60 4.01 -60 3.02 -60 2 C-57.6884626 1.51576489 -55.37592629 1.03755888 -53.0625 0.5625 C-51.77472656 0.29566406 -50.48695312 0.02882812 -49.16015625 -0.24609375 C-33.34332686 -3.25747963 -15.71585166 -3.47695833 0 0 Z " fill="#FFFFFF" transform="translate(60,169)"/>
<path d="M0 0 C6.68443216 3.09114124 13.39865254 5.79996231 20.38500977 8.13085938 C21.20146973 8.40542969 22.01792969 8.68 22.85913086 8.96289062 C54.34415487 19.05251205 82.97308666 11.25055249 112.05932617 -1.61425781 C141.94103078 -14.67872695 172.95857443 -19.13976466 204.11303711 -7.39770508 C214.19314851 -3.43830456 223.95106997 1.24309713 233.75415039 5.83349609 C261.18715047 18.56440385 288.83475333 21.81935817 317.80834961 11.90917969 C322.66743646 10.10470534 327.35185164 7.91006751 332.05200195 5.73168945 C338.9652921 2.53194827 345.95077958 -0.44331964 353.01000977 -3.30664062 C354.01547852 -3.72324951 355.02094727 -4.1398584 356.05688477 -4.5690918 C379.59133999 -14.03261086 406.23639863 -15.03270124 430.07250977 -5.93164062 C430.07250977 -5.27164063 430.07250977 -4.61164063 430.07250977 -3.93164062 C429.54786133 -4.04121094 429.02321289 -4.15078125 428.48266602 -4.26367188 C425.6825199 -4.8367467 422.87759936 -5.38325226 420.07250977 -5.93164062 C419.44538086 -6.06006348 418.81825195 -6.18848633 418.17211914 -6.32080078 C386.60987089 -12.7476064 361.16568296 -3.96389075 332.77563477 9.02929688 C305.03916509 21.64753247 275.57534958 25.24161762 246.39282227 14.84179688 C239.45744037 12.08987506 232.73409168 8.82250867 225.97851562 5.66235352 C194.33919622 -9.12060583 164.38136297 -17.25241917 130.14282227 -5.23632812 C122.64418834 -2.49739982 115.27711746 0.54600778 107.93188477 3.66992188 C80.34442844 15.3997667 51.55983118 21.53683379 22.07250977 12.06835938 C20.87625977 11.69066406 19.68000977 11.31296875 18.44750977 10.92382812 C11.27273095 8.4080953 4.40337484 5.32697915 -2.50727844 2.16220093 C-15.73018734 -3.89274471 -28.71068281 -9.5712414 -42.92749023 -12.93164062 C-44.00514648 -13.19332031 -45.08280273 -13.455 -46.19311523 -13.72460938 C-62.17090282 -16.84069622 -79.34004686 -15.57840196 -95.22436523 -12.58789062 C-98.92749023 -11.93164062 -98.92749023 -11.93164062 -102.92749023 -11.93164062 C-102.92749023 -12.59164062 -102.92749023 -13.25164062 -102.92749023 -13.93164062 C-100.94998345 -14.41761215 -98.97037373 -14.8950282 -96.98999023 -15.36914062 C-95.33676758 -15.76939453 -95.33676758 -15.76939453 -93.65014648 -16.17773438 C-59.95364451 -23.0018948 -30.18384883 -14.15644962 0 0 Z " fill="#FFFFFF" transform="translate(102.927490234375,194.931640625)"/>
<path d="M0 0 C1.21429688 0.37769531 2.42859375 0.75539062 3.6796875 1.14453125 C14.12636163 4.79976289 24.15061363 9.58830133 34.18310547 14.24194336 C61.73206045 26.8712161 91.64951589 32.37042711 120.93017578 21.95800781 C127.33742333 19.54584385 133.65882413 16.93771766 139.96679688 14.27832031 C172.93736242 0.38312704 204.46508736 -6.95099091 238.94140625 6.9453125 C246.84984288 10.24196549 254.6241265 13.79066935 262.32714844 17.54003906 C269.26970638 20.91509309 276.17647116 23.9761935 283.5 26.4375 C284.19311279 26.67235107 284.88622559 26.90720215 285.6003418 27.14916992 C304.82723445 33.31611412 326.83502552 33.33256025 346 27 C347.85431641 26.39865234 347.85431641 26.39865234 349.74609375 25.78515625 C358.10201818 22.90302395 366.05730981 19.16527339 374.0625 15.4375 C382.9117595 11.32292432 391.56005211 7.57157201 401 5 C402.12148438 4.68417969 403.24296875 4.36835938 404.3984375 4.04296875 C420.35306845 0.18638577 438.24808396 0.34098258 454 5 C453.67 5.66 453.34 6.32 453 7 C452.14921875 6.855625 451.2984375 6.71125 450.421875 6.5625 C418.67573394 1.69926137 394.42565319 9.77441978 365.7253418 22.71411133 C340.2457091 34.12850778 311.1122673 39.57626231 284 30 C283.25089355 29.73687012 282.50178711 29.47374023 281.72998047 29.20263672 C271.63964461 25.5602213 262.00283614 21.08741257 252.375 16.375 C245.44960503 12.99043458 238.56830083 9.87588687 231.25 7.4375 C230.23365479 7.0969458 230.23365479 7.0969458 229.19677734 6.74951172 C209.5280967 0.5497586 186.57245997 0.51649561 167 7 C165.78957031 7.40089844 164.57914063 7.80179688 163.33203125 8.21484375 C156.99962374 10.4318068 150.84041474 13.05855968 144.671875 15.69140625 C143.54193115 16.17343506 142.4119873 16.65546387 141.24780273 17.15209961 C139.01996943 18.10729244 136.79529761 19.06990621 134.57446289 20.04125977 C106.81404282 32.02566223 76.43035274 34.28459119 47.86572266 23.46606445 C41.26695451 20.84075523 34.80378999 17.91824975 28.3359375 14.98828125 C7.52507735 5.56685399 -11.30956129 -1.4160676 -34.4375 -1.3125 C-35.64438477 -1.31121094 -36.85126953 -1.30992187 -38.09472656 -1.30859375 C-48.91263496 -1.19433013 -59.37011975 0.0672945 -70 2 C-70 1.34 -70 0.68 -70 0 C-68.14703165 -0.48377991 -66.29255559 -0.96178636 -64.4375 -1.4375 C-62.88869141 -1.83775391 -62.88869141 -1.83775391 -61.30859375 -2.24609375 C-42.2609923 -6.58633824 -18.61154923 -5.82586482 0 0 Z " fill="#FFFFFF" transform="translate(70,191)"/>
<path d="M0 0 C25.38153822 -0.61718026 46.63706916 7.77518364 69.3828125 18.125 C101.57091478 32.6701278 132.04805697 36.79171941 165.63867188 24.21191406 C171.29998343 21.96955116 176.86590433 19.49978978 182.4453125 17.0625 C205.52159176 6.98253263 228.15375893 1.39264251 253.3828125 5.25 C254.35782715 5.3886145 254.35782715 5.3886145 255.35253906 5.5300293 C270.74156562 8.20404846 285.18385492 15.58018776 299.15600586 22.24145508 C316.37020846 30.4195805 333.3194558 36.55097255 352.6328125 36.4375 C354.13714844 36.43012817 354.13714844 36.43012817 355.671875 36.42260742 C374.22942193 36.13190035 391.04318436 29.95226231 407.62332153 22.1055603 C423.52031387 14.60968701 440.18973037 6.94521522 458.09375 7.02734375 C459.33769531 7.03056641 460.58164062 7.03378906 461.86328125 7.03710938 C463.14847656 7.04548828 464.43367188 7.05386719 465.7578125 7.0625 C467.06621094 7.06701172 468.37460937 7.07152344 469.72265625 7.07617188 C472.94275531 7.08792406 476.1627602 7.10435457 479.3828125 7.125 C479.3828125 7.785 479.3828125 8.445 479.3828125 9.125 C478.68945801 9.1343457 477.99610352 9.14369141 477.28173828 9.15332031 C451.16741864 9.59366758 431.00689819 14.65323731 407.5078125 25.625 C400.29793942 28.98858885 393.1218184 32.16761128 385.5703125 34.6875 C384.89693848 34.914375 384.22356445 35.14125 383.52978516 35.375 C364.00232156 41.58061883 341.87503137 41.20124834 322.3828125 35.125 C321.19429688 34.75890625 320.00578125 34.3928125 318.78125 34.015625 C312.07068687 31.6877637 305.66462947 28.81987651 299.23828125 25.80078125 C298.59289398 25.49771057 297.94750671 25.19463989 297.28256226 24.88238525 C294.03174214 23.35161628 290.78858451 21.806993 287.55566406 20.23876953 C276.12385248 14.73933263 264.41045069 10.05740266 251.7578125 8.3125 C250.95279297 8.19632324 250.14777344 8.08014648 249.31835938 7.96044922 C223.08987652 4.40146843 200.27936878 12.4797528 176.71923828 23.07592773 C145.82416005 36.82203987 114.16107183 39.46324768 82.27783203 27.30664062 C74.6823462 24.20644233 67.23324897 20.72930922 59.81005859 17.23901367 C42.0017971 8.91483294 24.11265038 3.54340156 4.29345703 3.78881836 C2.25122811 3.8125766 0.21030298 3.80932255 -1.83203125 3.80273438 C-9.27224926 3.81983755 -16.42107682 4.35104385 -23.74560547 5.69848633 C-26.74321954 6.14371943 -29.59121841 6.19544317 -32.6171875 6.125 C-32.2871875 5.465 -31.9571875 4.805 -31.6171875 4.125 C-29.18583956 3.4929705 -26.83596488 2.99105421 -24.3671875 2.5625 C-23.64571533 2.43319092 -22.92424316 2.30388184 -22.1809082 2.1706543 C-14.80466075 0.90051276 -7.46999637 0.35677595 0 0 Z " fill="#FFFFFF" transform="translate(32.6171875,195.875)"/>
<path d="M0 0 C30.4228875 14.0201098 59.96329972 18.2948578 92.21029663 7.19869995 C99.63698814 4.41949717 106.8756233 1.16017143 114.14303589 -2.00708008 C143.53056271 -14.78164278 173.85181617 -18.74127205 204.40292358 -7.32546997 C213.59326947 -3.70024104 222.50986331 0.61605637 231.39022827 4.93771362 C259.44121514 18.48034118 288.44116611 22.43545719 318.28109741 12.1322937 C326.87399461 8.96073346 335.10234355 4.92057353 343.39486694 1.04977417 C360.09728135 -6.65373433 376.0234931 -10.9922463 394.41098022 -11.99905396 C394.41098022 -11.33905396 394.41098022 -10.67905396 394.41098022 -9.99905396 C391.97914188 -8.78313478 389.73770713 -8.69737428 387.05892944 -8.45706177 C370.30512297 -6.88049416 356.22998114 -1.16107509 341.12142944 5.81808472 C310.73350717 19.83795046 280.10623955 26.847436 247.52035522 15.34078979 C238.41363008 11.91240759 229.70376179 7.71760845 220.97348022 3.43844604 C192.37674836 -10.54848462 163.00302856 -15.87702553 132.27084351 -5.79177856 C123.86449859 -2.89853566 115.72797405 0.53638597 107.59848022 4.12594604 C75.02705339 18.49774588 43.91147098 20.92613 10.30502319 8.17721558 C3.7848037 5.52710443 -2.54508313 2.44760718 -8.89981079 -0.57254028 C-15.8481206 -3.83974954 -22.79756017 -6.71470208 -30.08901978 -9.12405396 C-30.9062854 -9.39475708 -31.72355103 -9.66546021 -32.56558228 -9.94436646 C-51.27178538 -15.87108427 -70.24075023 -15.69202754 -89.58901978 -13.99905396 C-89.91901978 -14.65905396 -90.24901978 -15.31905396 -90.58901978 -15.99905396 C-58.13118039 -22.63277295 -29.25849065 -13.52178028 0 0 Z " fill="#FFFFFF" transform="translate(102.58901977539063,223.99905395507813)"/>
<path d="M0 0 C12.54747439 -0.57469348 24.21518208 6.53004967 35.1875 11.9375 C43.11058589 15.82830111 50.99176876 19.34434386 59.375 22.125 C60.18735107 22.39562256 60.99970215 22.66624512 61.83666992 22.94506836 C71.55778219 26.01683987 81.06541443 27.37233791 91.25 27.3125 C92.75433594 27.30512817 92.75433594 27.30512817 94.2890625 27.29760742 C114.48038093 26.98130704 132.40744825 19.58924343 150.37231445 11.08398438 C157.63590727 7.65892029 164.87655445 4.52553324 172.53515625 2.08203125 C173.17940048 1.87308228 173.82364471 1.6641333 174.4874115 1.44885254 C180.34804705 -0.33384304 185.935548 -0.5168567 192 0 C192 0.33 192 0.66 192 1 C190.93265625 1.1959375 189.8653125 1.391875 188.765625 1.59375 C172.82388531 4.71577972 158.57746823 10.87632606 143.875 17.625 C137.49159653 20.55033626 131.09444581 23.19684187 124.4375 25.4375 C123.74833496 25.67227051 123.05916992 25.90704102 122.34912109 26.14892578 C102.78078532 32.47503768 80.56181081 32.09794201 61 26 C59.21722656 25.45085938 59.21722656 25.45085938 57.3984375 24.890625 C50.68787437 22.5627637 44.28181697 19.69487651 37.85546875 16.67578125 C37.21008148 16.37271057 36.56469421 16.06963989 35.89974976 15.75738525 C32.64892964 14.22661628 29.40577201 12.681993 26.17285156 11.11376953 C17.63186751 7.00816597 9.06148285 3.79413782 0 1 C0 0.67 0 0.34 0 0 Z " fill="#FFFFFF" transform="translate(294,0)"/>
<path d="M0 0 C5.02895209 -0.34751373 8.2078771 0.69840729 12.734375 2.8515625 C14.03497496 3.45926818 15.33559417 4.06693265 16.63623047 4.67456055 C17.6443277 5.15329117 17.6443277 5.15329117 18.67279053 5.64169312 C52.21705675 21.52083692 83.75096168 28.86453221 119.75390625 16.01953125 C127.76125993 13.01896469 135.60127514 9.57240856 143.4309082 6.13891602 C144.58292725 5.63416748 145.73494629 5.12941895 146.921875 4.609375 C147.94893555 4.15530273 148.97599609 3.70123047 150.03417969 3.23339844 C156.06912824 0.7236388 160.53741507 -0.22284776 167 0 C163.5695553 1.83351355 160.03102873 3.11835473 156.375 4.4375 C148.7975355 7.20972115 141.40849643 10.37014739 134 13.5625 C102.42497542 27.0620489 71.48524207 30.60938357 38.93896484 18.19482422 C28.51936522 13.95877832 18.32645878 9.15413893 8.12768555 4.41699219 C5.44199189 3.20024361 2.74796226 2.06688243 0 1 C0 0.67 0 0.34 0 0 Z " fill="#FFFFFF" transform="translate(76,0)"/>
<path d="M0 0 C5.89648567 -0.61969435 9.67240593 1.5041887 14.75 4.125 C21.23504645 7.33305857 27.6891774 10.16739836 34.5625 12.4375 C35.2627832 12.67162598 35.96306641 12.90575195 36.68457031 13.14697266 C55.8995986 19.29052229 77.83878897 19.42918646 97 13 C97.66499512 12.78037598 98.32999023 12.56075195 99.01513672 12.33447266 C107.27003498 9.54733496 115.2050964 6.17031223 122.95361328 2.18432617 C126.80634306 0.27308273 129.71319881 -0.32574477 134 0 C131.72738678 2.27261322 129.7966669 3.1216359 126.86328125 4.42578125 C125.8180127 4.89056885 124.77274414 5.35535645 123.69580078 5.83422852 C122.02106689 6.5659729 122.02106689 6.5659729 120.3125 7.3125 C119.17796387 7.8087085 118.04342773 8.30491699 116.87451172 8.81616211 C86.37154749 22.00222612 56.03750059 24.46851932 24.875 12.1875 C16.45202761 8.7445806 8.18656885 4.9692455 0 1 C0 0.67 0 0.34 0 0 Z " fill="#FFFFFF" transform="translate(319,0)"/>
<path d="M0 0 C5.79831007 -0.55574857 9.74823538 1.38712606 14.875 3.75 C44.38357118 16.78113642 74.26136357 15.27835146 104 4 C106.43592908 2.93793492 108.8328538 1.82411121 111.23046875 0.6796875 C113.84854632 -0.3259317 116.24222973 -0.28284823 119 0 C95.75125053 15.49916631 63.70320246 19.71393597 36.6875 14.5 C26.32788316 12.30008947 16.66771315 8.23447165 7 4 C5.64244357 3.41676508 4.28441727 2.83462182 2.92578125 2.25390625 C1.96027344 1.84011719 0.99476562 1.42632812 0 1 C0 0.67 0 0.34 0 0 Z " fill="#FFFFFF" transform="translate(98,0)"/>
<path d="M0 0 C4.95141224 -0.28857924 8.60553593 0.6940538 13.25 2.375 C36.78434179 10.60439449 59.61918886 8.73966874 83 1 C83.66 0.67 84.32 0.34 85 0 C86.99960012 -0.039992 89.00047242 -0.04346799 91 0 C78.58379953 10.49428246 54.45749806 12.20684209 39 11 C25.23554962 9.58114178 12.81268543 6.20665307 0 1 C0 0.67 0 0.34 0 0 Z " fill="#FFFFFF" transform="translate(340,0)"/>
<path d="M0 0 C17.56178514 -1.85948313 33.19587687 7.34966675 48.42358398 14.87646484 C57.1339845 19.17252124 65.81413317 22.85746661 75 26 C76.67096836 26.65581016 78.33938311 27.31840352 80 28 C80 28.66 80 29.32 80 30 C67.41456236 27.63097644 56.22295729 22.0603702 44.80859375 16.46484375 C30.43765029 9.43642789 16.01654364 3.04616637 0 1 C0 0.67 0 0.34 0 0 Z " fill="#FFFFFF" transform="translate(510,0)"/>
<path d="M0 0 C4.74055002 -0.14293116 8.67521784 0.30657857 13.25 1.5 C28.20758627 4.88239837 45.50328535 4.62263202 60.30078125 0.66796875 C63.97680648 -0.2417278 67.23671713 -0.22579697 71 0 C55.99419824 10.00386784 29.44267512 7.99978054 12.70898438 4.65820312 C4.00445576 2.66963717 4.00445576 2.66963717 0 0 Z " fill="#FFFFFF" transform="translate(122,0)"/>
<path d="M0 0 C6.86166362 0.41208315 12.17741924 3.25245767 18.25 6.3125 C25.70287019 10.0389351 33.10175143 13.32500523 41 16 C40.505 17.485 40.505 17.485 40 19 C26.43823438 13.45130047 13.17631247 7.40913562 0 1 C0 0.67 0 0.34 0 0 Z " fill="#FFFFFF" transform="translate(543,0)"/>
<path d="M0 0 C9.09677419 0.90967742 9.09677419 0.90967742 12 3 C12.33 3.99 12.66 4.98 13 6 C3.40546697 3.10933941 3.40546697 3.10933941 0 0 Z " fill="#FFFFFF" transform="translate(563,0)"/>
<path d="M0 0 C6.6 0 13.2 0 20 0 C20 0.33 20 0.66 20 1 C13.4 1 6.8 1 0 1 C0 0.67 0 0.34 0 0 Z " fill="#FFFFFF" transform="translate(376,0)"/>
</svg>
